<svg version="1.1" id="Capa_1" xmlns="http://www.w3.org/2000/svg" x="0" y="0" viewBox="0 0 490.667 490.667" xml:space="preserve"><path d="M245.333 0C109.839 0 0 109.839 0 245.333s109.839 245.333 245.333 245.333 245.333-109.839 245.333-245.333C490.514 109.903 380.764.153 245.333 0z" fill="#ff2d2d"/><path d="M254.485 111.851c-3.429-5.049-10.302-6.361-15.35-2.932a11.05 11.05 0 00-2.932 2.932l-128 213.333c-3.028 5.053-1.386 11.604 3.667 14.632a10.676 10.676 0 005.464 1.517h256c5.891.001 10.668-4.773 10.669-10.664a10.67 10.67 0 00-1.517-5.485L254.485 111.851z" fill="#fafafa"/></svg>